<?xml version="1.0" encoding="UTF-8"?><svg id="a" xmlns="http://www.w3.org/2000/svg" xmlns:xlink="http://www.w3.org/1999/xlink" viewBox="0 0 2070.98 567.18"><defs><style>.h{fill:url(#f);}.i{fill:url(#d);}.j{fill:url(#c);}.k{fill:#f4f4f4;}.l,.m{fill:#388270;}.n{fill:#bce254;}.o{fill:#20262c;}.m{stroke:#bce254;stroke-width:3px;}.m,.p,.q,.r{stroke-miterlimit:10;}.s,.q{fill:#fff;}.p{stroke-width:22px;}.p,.q,.r{stroke:#20262c;}.p,.r,.t{fill:none;}.q{stroke-width:13px;}.r{stroke-linecap:round;stroke-width:14px;}.t{stroke:#000;stroke-width:20px;}</style><linearGradient id="c" x1="350.4" y1="1010.7" x2="350.4" y2="1292.7" gradientTransform="translate(0 1443.16) scale(1 -1)" gradientUnits="userSpaceOnUse"><stop offset="0" stop-color="#ccc"/><stop offset=".5" stop-color="#f2f2f2"/><stop offset="1" stop-color="#fff"/></linearGradient><linearGradient id="d" x1="623.9" y1="1018.7" x2="623.9" y2="1284.71" gradientTransform="translate(0 1443.16) scale(1 -1)" gradientUnits="userSpaceOnUse"><stop offset="0" stop-color="#e6e6e6"/><stop offset=".5" stop-color="#fff"/><stop offset="1" stop-color="#fff"/></linearGradient><linearGradient id="f" x1="342.4" y1="1269.7" x2="342.4" y2="1300.7" gradientTransform="translate(0 1443.16) scale(1 -1)" gradientUnits="userSpaceOnUse"><stop offset="0" stop-color="#e6e6e6"/><stop offset=".5" stop-color="#fff"/><stop offset="1" stop-color="#ccc"/></linearGradient></defs><path d="M931.34,162.52c.51-5.1,5.1-7.66,13.79-7.66h174.61c8.17,0,14.8,1.53,19.91,4.59l18.38,10.72c4.59,3.58,5.61,8.17,3.06,13.78-13.53,38.55-30.7,78.05-51.5,118.51-20.81,40.46-49.2,77.29-85.2,110.47-35.99,33.19-75.18,56.41-117.55,69.69-10.47,3.06-17.61,2.04-21.44-3.06l-16.85-22.97c-5.36-7.91-4.85-13.02,1.53-15.32,36.5-11.49,71.03-29.93,103.58-55.33,32.55-25.4,59.92-56.6,82.13-93.62,22.21-37.01,36.88-68.54,44.03-94.58h-125.59c-7.66,26.04-21.89,50.87-42.69,74.48-20.81,23.61-40.27,40.65-58.39,51.12-6.13,3.32-11.75,3.32-16.85,0l-24.51-18.38c-4.85-4.59-3.83-9.19,3.06-13.78,59.48-42.12,91.64-85.01,96.49-128.66Z"/><path d="M1485.79,214.59h-104.15v62.8h179.2c6.13,0,9.19,4.09,9.19,12.25v24.51c0,8.17-3.06,12.25-9.19,12.25h-179.2v85.77c0,5.88,2.55,8.94,7.66,9.19,38.8,2.05,77.6,1.15,116.4-2.68,6.38-.51,9.82,3.45,10.34,11.87l.77,22.59c.25,8.93-2.68,13.65-8.81,14.17-43.91,4.08-87.05,5.1-129.42,3.06-32.68-1.79-49.01-18.64-49.01-50.54v-93.43h-108.75c-6.13,0-9.19-4.08-9.19-12.25v-24.51c0-8.17,3.06-12.25,9.19-12.25h108.75v-62.8h-58.2c-6.13,0-9.19-4.08-9.19-12.25v-24.51c0-8.17,3.06-12.25,9.19-12.25h214.43c7.14,0,10.72,4.09,10.72,12.25v24.51c0,8.17-3.58,12.25-10.72,12.25Z"/><path d="M1692.56,200.81c.51-8.93,4.59-13.02,12.25-12.25l32.16,3.06c4.85.51,6.89,6.13,6.13,16.85-8.94,99.3-42.38,184.05-100.32,254.25-4.34,4.85-10.98,4.98-19.91.38l-22.59-11.87c-6.64-4.34-6.77-10.59-.38-18.76,56.41-70.96,87.3-148.19,92.66-231.66ZM1801.31,216.13c-3.06-4.85-2.55-8.42,1.53-10.72l29.1-16.85c4.08-2.55,9.19.51,15.32,9.19,44.67,65.35,82.96,145,114.87,238.93,3.06,9.19,2.04,14.8-3.06,16.85l-32.16,10.72c-6.38,2.04-11.49-2.05-15.32-12.25-26.55-88.07-63.31-166.69-110.28-235.87Z"/><path class="t" d="M931.34,162.52c.51-5.1,5.1-7.66,13.79-7.66h174.61c8.17,0,14.8,1.53,19.91,4.59l18.38,10.72c4.59,3.58,5.61,8.17,3.06,13.78-13.53,38.55-30.7,78.05-51.5,118.51-20.81,40.46-49.2,77.29-85.2,110.47-35.99,33.19-75.18,56.41-117.55,69.69-10.47,3.06-17.61,2.04-21.44-3.06l-16.85-22.97c-5.36-7.91-4.85-13.02,1.53-15.32,36.5-11.49,71.03-29.93,103.58-55.33,32.55-25.4,59.92-56.6,82.13-93.62,22.21-37.01,36.88-68.54,44.03-94.58h-125.59c-7.66,26.04-21.89,50.87-42.69,74.48-20.81,23.61-40.27,40.65-58.39,51.12-6.13,3.32-11.75,3.32-16.85,0l-24.51-18.38c-4.85-4.59-3.83-9.19,3.06-13.78,59.48-42.12,91.64-85.01,96.49-128.66Z"/><path class="t" d="M1485.79,214.59h-104.15v62.8h179.2c6.13,0,9.19,4.09,9.19,12.25v24.51c0,8.17-3.06,12.25-9.19,12.25h-179.2v85.77c0,5.88,2.55,8.94,7.66,9.19,38.8,2.05,77.6,1.15,116.4-2.68,6.38-.51,9.82,3.45,10.34,11.87l.77,22.59c.25,8.93-2.68,13.65-8.81,14.17-43.91,4.08-87.05,5.1-129.42,3.06-32.68-1.79-49.01-18.64-49.01-50.54v-93.43h-108.75c-6.13,0-9.19-4.08-9.19-12.25v-24.51c0-8.17,3.06-12.25,9.19-12.25h108.75v-62.8h-58.2c-6.13,0-9.19-4.08-9.19-12.25v-24.51c0-8.17,3.06-12.25,9.19-12.25h214.43c7.14,0,10.72,4.09,10.72,12.25v24.51c0,8.17-3.58,12.25-10.72,12.25Z"/><path class="t" d="M1692.56,200.81c.51-8.93,4.59-13.02,12.25-12.25l32.16,3.06c4.85.51,6.89,6.13,6.13,16.85-8.94,99.3-42.38,184.05-100.32,254.25-4.34,4.85-10.98,4.98-19.91.38l-22.59-11.87c-6.64-4.34-6.77-10.59-.38-18.76,56.41-70.96,87.3-148.19,92.66-231.66ZM1801.31,216.13c-3.06-4.85-2.55-8.42,1.53-10.72l29.1-16.85c4.08-2.55,9.19.51,15.32,9.19,44.67,65.35,82.96,145,114.87,238.93,3.06,9.19,2.04,14.8-3.06,16.85l-32.16,10.72c-6.38,2.04-11.49-2.05-15.32-12.25-26.55-88.07-63.31-166.69-110.28-235.87Z"/><g id="b"><path class="j" d="M21.4,432.46V150.46h607.13c28.05,0,50.87,22.82,50.87,50.87v215.43c0,8.66-7.04,15.7-15.7,15.7H21.4Z"/><path class="o" d="M628.53,158.46c23.68,0,42.87,19.19,42.87,42.87v215.43c0,4.25-3.45,7.7-7.7,7.7H29.4V158.46h599.13M628.53,142.46H13.4v298h650.3c13.07,0,23.7-10.63,23.7-23.7v-215.43c0-32.46-26.41-58.87-58.87-58.87h0Z"/><rect class="l" x="29.4" y="335.46" width="547" height="75"/><path class="i" d="M628.79,158.46h-52.39v266h87.3c4.25,0,7.7-3.45,7.7-7.7v-215.7c0-23.53-19.08-42.61-42.61-42.61h0Z"/><rect class="k" x="29.4" y="158.46" width="547" height="31"/><g id="e"><polyline class="p" points="237.4 172.22 237.4 142.46 447.4 142.46 447.4 172.22"/><rect class="h" x="237.4" y="142.46" width="210" height="31"/></g><circle class="o" cx="225.4" cy="487.46" r="44" transform="translate(-291.88 631.87) rotate(-80.78)"/><path class="o" d="M225.4,450.46c20.4,0,37,16.6,37,37s-16.6,37-37,37-37-16.6-37-37,16.6-37,37-37M225.4,436.46c-28.17,0-51,22.83-51,51s22.83,51,51,51,51-22.83,51-51-22.83-51-51-51h0Z"/><circle class="o" cx="123.4" cy="487.46" r="44"/><path class="o" d="M123.4,450.46c20.4,0,37,16.6,37,37s-16.6,37-37,37-37-16.6-37-37,16.6-37,37-37M123.4,436.46c-28.17,0-51,22.83-51,51s22.83,51,51,51,51-22.83,51-51-22.83-51-51-51h0Z"/><circle class="o" cx="577.4" cy="487.46" r="44"/><path class="o" d="M577.4,450.46c20.4,0,37,16.6,37,37s-16.6,37-37,37-37-16.6-37-37,16.6-37,37-37M577.4,436.46c-28.17,0-51,22.83-51,51s22.83,51,51,51,51-22.83,51-51-22.83-51-51-51h0Z"/><circle class="o" cx="475.4" cy="487.46" r="44"/><path class="o" d="M475.4,450.46c20.4,0,37,16.6,37,37s-16.6,37-37,37-37-16.6-37-37,16.6-37,37-37M475.4,436.46c-28.17,0-51,22.83-51,51s22.83,51,51,51,51-22.83,51-51-22.83-51-51-51h0Z"/><polygon class="m" points="671.51 359.75 635.24 320.09 648.06 309.29 684.33 348.95 671.51 359.75"/><g id="g"><polyline class="r" points="167.9 58.96 76.9 113.96 168.9 170.96"/></g><rect class="n" x="29.4" y="334.46" width="547" height="23"/><rect class="s" x="29.4" y="324.46" width="547" height="10"/><rect class="o" x="671.4" y="195.46" width="15" height="188"/><path class="q" d="M678.9,202.96l-40.53,2.8c-10.9,2.53-18.11,14.18-16.38,26.47l9.78,69.42c.74,5.22,2.99,10.04,6.41,13.69l41.73,29.63-1-142h0Z"/></g></svg>